<?xml version="1.0" ?>
<!-- Uploaded to: SVG Repo, www.svgrepo.com, Generator: SVG Repo Mixer Tools -->
<svg width="800px" height="800px" viewBox="0 0 300 300" id="batscream" version="1.1" xml:space="preserve" xmlns="http://www.w3.org/2000/svg" xmlns:xlink="http://www.w3.org/1999/xlink">
<g>
<path d="   M139.397,218c1.691-5.264,2.603-10.868,2.603-16.681C142,170.767,116.808,146,85.733,146C57.298,146,33.79,166.737,30,193.667   c7.738,0.858,14.811,3.876,20.58,8.427c5.676-3.015,12.173-4.726,19.077-4.726c10.329,0,19.747,3.831,26.867,10.126   c4.169-1.44,8.654-2.223,13.324-2.223C121.533,205.27,132.053,210.173,139.397,218z" style="fill-rule:evenodd;clip-rule:evenodd;fill:#777777;stroke:#000000;stroke-width:8;stroke-linecap:round;stroke-linejoin:round;stroke-miterlimit:10;"/>
<path d="   M168.604,218c-1.691-5.264-2.604-10.868-2.604-16.681C166,170.767,191.192,146,222.267,146c28.434,0,51.943,20.737,55.733,47.667   c-7.739,0.858-14.811,3.876-20.58,8.427c-5.676-3.015-12.173-4.726-19.077-4.726c-10.329,0-19.748,3.831-26.867,10.126   c-4.17-1.44-8.654-2.223-13.324-2.223C186.467,205.27,175.947,210.173,168.604,218z" style="fill-rule:evenodd;clip-rule:evenodd;fill:#777777;stroke:#000000;stroke-width:8;stroke-linecap:round;stroke-linejoin:round;stroke-miterlimit:10;"/>
<polygon points="   130,118 142.659,130.362 165.484,130.362 178,118 178,222 154,242 130,222  " style="fill-rule:evenodd;clip-rule:evenodd;fill:#595959;stroke:#000000;stroke-width:8;stroke-linecap:round;stroke-linejoin:round;stroke-miterlimit:10;"/>
<polygon points="170,142 170,154 154,154  " style="fill-rule:evenodd;clip-rule:evenodd;"/>
<polygon points="138,142 138,154 154,154  " style="fill-rule:evenodd;clip-rule:evenodd;"/>
<line style="fill:#26BBEC;stroke:#000000;stroke-width:8;stroke-linecap:round;stroke-linejoin:round;stroke-miterlimit:10;" x1="154" x2="154" y1="106" y2="66"/>
<line style="fill:#26BBEC;stroke:#000000;stroke-width:8;stroke-linecap:round;stroke-linejoin:round;stroke-miterlimit:10;" x1="138" x2="110" y1="106" y2="78"/>
<line style="fill:#26BBEC;stroke:#000000;stroke-width:8;stroke-linecap:round;stroke-linejoin:round;stroke-miterlimit:10;" x1="170" x2="198" y1="106" y2="78"/>
</g>
<g/>
<g/>
<g/>
<g/>
<g/>
<g/>
<g/>
<g/>
<g/>
<g/>
<g/>
<g/>
<g/>
<g/>
<g/>
</svg>