<?xml version="1.0" ?>
<!-- Uploaded to: SVG Repo, www.svgrepo.com, Generator: SVG Repo Mixer Tools -->
<svg width="800px" height="800px" viewBox="0 0 300 300" id="dog" version="1.1" xml:space="preserve" xmlns="http://www.w3.org/2000/svg" xmlns:xlink="http://www.w3.org/1999/xlink">
<g>
<path d="   M80.032,93.992C79.154,71.904,96.221,54,118.245,54h71.51c21.983,0,39.09,17.924,38.212,39.992l-4.773,120.016   C222.317,236.096,203.789,254,181.86,254h-55.72c-21.95,0-40.457-17.924-41.335-39.992L80.032,93.992z" style="fill-rule:evenodd;clip-rule:evenodd;fill:#997843;stroke:#000000;stroke-width:8;stroke-linecap:round;stroke-linejoin:round;stroke-miterlimit:10;"/>
<path d="   M116,214c0,11.046,8.954,20,20,20c11.046,0,20-8.954,20-20" style="fill:none;stroke:#000000;stroke-width:8;stroke-linecap:round;stroke-linejoin:round;stroke-miterlimit:10;"/>
<path d="   M257.953,71.304C263.045,61.748,258.303,54,247.442,54H192l31.033,63.408c2.54,5.959,7.073,6.147,10.139,0.394L257.953,71.304z" style="fill-rule:evenodd;clip-rule:evenodd;fill:#FBAD4A;stroke:#000000;stroke-width:8;stroke-linecap:round;stroke-linejoin:round;stroke-miterlimit:10;"/>
<path d="   M156,214c0,11.046,8.954,20,20,20c11.046,0,20-8.954,20-20" style="fill:none;stroke:#000000;stroke-width:8;stroke-linecap:round;stroke-linejoin:round;stroke-miterlimit:10;"/>
<path d="   M50.047,71.304C44.955,61.748,49.697,54,60.558,54H116l-31.033,63.408c-2.54,5.959-7.073,6.147-10.139,0.394L50.047,71.304z" style="fill-rule:evenodd;clip-rule:evenodd;fill:#FBAD4A;stroke:#000000;stroke-width:8;stroke-linecap:round;stroke-linejoin:round;stroke-miterlimit:10;"/>
<path d="   M159.762,215.055c-2.078,3.922-5.444,3.93-7.525,0l-7.385-13.951c-2.078-3.922-0.225-7.104,4.15-7.104h13.995   c4.37,0,6.232,3.174,4.15,7.104L159.762,215.055z" style="fill-rule:evenodd;clip-rule:evenodd;fill:#595959;stroke:#000000;stroke-width:8;stroke-linecap:round;stroke-linejoin:round;stroke-miterlimit:10;"/>
<circle cx="120" cy="134" r="16" style="fill-rule:evenodd;clip-rule:evenodd;fill:#FFFFFF;stroke:#000000;stroke-width:8;stroke-linecap:round;stroke-linejoin:round;stroke-miterlimit:10;"/>
<circle cx="116" cy="138" r="8" style="fill-rule:evenodd;clip-rule:evenodd;"/>
<circle cx="188" cy="134" r="16" style="fill-rule:evenodd;clip-rule:evenodd;fill:#FFFFFF;stroke:#000000;stroke-width:8;stroke-linecap:round;stroke-linejoin:round;stroke-miterlimit:10;"/>
<circle cx="184" cy="138" r="8" style="fill-rule:evenodd;clip-rule:evenodd;"/>
</g>
<g/>
<g/>
<g/>
<g/>
<g/>
<g/>
<g/>
<g/>
<g/>
<g/>
<g/>
<g/>
<g/>
<g/>
<g/>
</svg>