<?xml version="1.0" ?>
<!-- Uploaded to: SVG Repo, www.svgrepo.com, Generator: SVG Repo Mixer Tools -->
<svg width="800px" height="800px" viewBox="0 0 300 300" id="parrot" version="1.1" xml:space="preserve" xmlns="http://www.w3.org/2000/svg" xmlns:xlink="http://www.w3.org/1999/xlink">
<g>
<path d="   M178.229,50.468c0,0-145.034-14.462-148.184,117.402c-3.15,131.865,160.617,85.715,172.081,66.234   c11.464-19.476,17.03-65.492-31.41-80.181L178.229,50.468z" style="fill-rule:evenodd;clip-rule:evenodd;fill:#ED5481;stroke:#000000;stroke-width:8;stroke-linecap:round;stroke-linejoin:round;stroke-miterlimit:10;"/>
<path d="   M170.189,153.489c0,0-20.391,28.645-27.742,45.25c-7.351,16.6-30.194,32.851-48.454,16.425   c-18.261-16.425-49.292-95.661,13.452-126.481C170.189,57.86,202,103.538,202,103.538" style="fill-rule:evenodd;clip-rule:evenodd;fill:#595959;stroke:#000000;stroke-width:8;stroke-linecap:round;stroke-linejoin:round;stroke-miterlimit:10;"/>
<path d="   M277.942,149.542c0,0,5.927-76.671-101.638-99.542c0,0-55.186,72.284-5.688,104c0,0,8.603-9.323,39.095-11.042   C240.202,141.24,277.942,149.542,277.942,149.542z" style="fill-rule:evenodd;clip-rule:evenodd;fill:#26BBEC;stroke:#000000;stroke-width:8;stroke-linecap:round;stroke-linejoin:round;stroke-miterlimit:10;"/>
<path d="   M278,150c0,0-69.05-39.389-120-17.245" style="fill:none;stroke:#000000;stroke-width:8;stroke-linecap:round;stroke-linejoin:round;stroke-miterlimit:10;"/>
<circle cx="116" cy="124" r="22" style="fill-rule:evenodd;clip-rule:evenodd;fill:#FFFFFF;stroke:#000000;stroke-width:8;stroke-linecap:round;stroke-linejoin:round;stroke-miterlimit:10;"/>
<circle cx="110" cy="114" r="8" style="fill-rule:evenodd;clip-rule:evenodd;fill:#26BBEC;stroke:#000000;stroke-width:8;stroke-linecap:round;stroke-linejoin:round;stroke-miterlimit:10;"/>
</g>
<g/>
<g/>
<g/>
<g/>
<g/>
<g/>
<g/>
<g/>
<g/>
<g/>
<g/>
<g/>
<g/>
<g/>
<g/>
</svg>