<?xml version="1.0" ?>
<!-- Uploaded to: SVG Repo, www.svgrepo.com, Generator: SVG Repo Mixer Tools -->
<svg width="800px" height="800px" viewBox="0 0 300 300" id="fish" version="1.1" xml:space="preserve" xmlns="http://www.w3.org/2000/svg" xmlns:xlink="http://www.w3.org/1999/xlink">
<g>
<path d="   M137.533,131.885L126,112.767c0,0,57.207-17.236,86.416-3.375S225.629,136,225.629,136" style="fill-rule:evenodd;clip-rule:evenodd;fill:#26BBEC;stroke:#000000;stroke-width:8;stroke-linecap:round;stroke-linejoin:round;stroke-miterlimit:10;"/>
<path d="   M178,204c46.392,0,96-21.908,96-44s-49.608-44-96-44S74,160,74,160S131.608,204,178,204z" style="fill-rule:evenodd;clip-rule:evenodd;fill:#2A8EE6;stroke:#000000;stroke-width:8;stroke-linecap:round;stroke-linejoin:round;stroke-miterlimit:10;"/>
<circle cx="238" cy="152" r="8" style="fill-rule:evenodd;clip-rule:evenodd;"/>
<path d="   M78,158.175c0,0-63.09-41.17-32.798,0.417c0,0-23.791,11.453-2.029,19.864C64.935,186.866,78,158.175,78,158.175z" style="fill-rule:evenodd;clip-rule:evenodd;fill:#26BBEC;stroke:#000000;stroke-width:8;stroke-linecap:round;stroke-linejoin:round;stroke-miterlimit:10;"/>
<path d="   M173.548,172c0,0-0.021,11.936-23.548,15.477c0,0,31.978,4.47,48-12.721" style="fill-rule:evenodd;clip-rule:evenodd;fill:none;stroke:#000000;stroke-width:8;stroke-linecap:round;stroke-linejoin:round;stroke-miterlimit:10;"/>
</g>
<g/>
<g/>
<g/>
<g/>
<g/>
<g/>
<g/>
<g/>
<g/>
<g/>
<g/>
<g/>
<g/>
<g/>
<g/>
</svg>