<?xml version="1.0" ?>
<!-- Uploaded to: SVG Repo, www.svgrepo.com, Generator: SVG Repo Mixer Tools -->
<svg width="800px" height="800px" viewBox="0 0 300 300" id="fish2" version="1.1" xml:space="preserve" xmlns="http://www.w3.org/2000/svg" xmlns:xlink="http://www.w3.org/1999/xlink">
<g>
<path d="   M133.889,218C180.09,218,226,189.348,226,154s-45.91-64-92.111-64s-83.655,28.652-83.655,64c0,8.164-27.543,0.748-23.902,7.924   c1.914,3.776,15.642,28.584,39.161,42.252C89.01,217.844,117.034,218,133.889,218z" style="fill-rule:evenodd;clip-rule:evenodd;fill:#F87EA1;stroke:#000000;stroke-width:8;stroke-linecap:round;stroke-linejoin:round;stroke-miterlimit:10;"/>
<path d="   M266,110c-26.51,0-48,21.492-48,48s21.49,48,48,48c0,0-2.667-20,0-28s16-20,16-20s-13.333-20-16-28S266,110,266,110z" style="fill-rule:evenodd;clip-rule:evenodd;fill:#ED5481;stroke:#000000;stroke-width:8;stroke-linecap:round;stroke-linejoin:round;stroke-miterlimit:10;"/>
<path d="   M163,134c-11.598,0-21,9.848-21,22s9.402,22,21,22c0,0-1.167-9.168,0-12.832c1.167-3.668,7-9.168,7-9.168s-5.833-9.168-7-12.832   C161.833,139.5,163,134,163,134z" style="fill-rule:evenodd;clip-rule:evenodd;fill:#ED5481;stroke:#000000;stroke-width:8;stroke-linecap:round;stroke-linejoin:round;stroke-miterlimit:10;"/>
<circle cx="86" cy="146" r="12" style="fill-rule:evenodd;clip-rule:evenodd;fill:#FFDD95;stroke:#000000;stroke-width:8;stroke-linecap:round;stroke-linejoin:round;stroke-miterlimit:10;"/>
</g>
<g/>
<g/>
<g/>
<g/>
<g/>
<g/>
<g/>
<g/>
<g/>
<g/>
<g/>
<g/>
<g/>
<g/>
<g/>
</svg>