<?xml version="1.0" ?>
<!-- Uploaded to: SVG Repo, www.svgrepo.com, Generator: SVG Repo Mixer Tools -->
<svg width="800px" height="800px" viewBox="0 0 300 300" id="cow" version="1.1" xml:space="preserve" xmlns="http://www.w3.org/2000/svg" xmlns:xlink="http://www.w3.org/1999/xlink">
<g>
<path d="   M31.867,68h60v40H63.875c-11.051,0-22.583-8.581-25.763-19.18L31.867,68z" style="fill-rule:evenodd;clip-rule:evenodd;fill:#DDDDDD;stroke:#000000;stroke-width:7.7333;stroke-linecap:round;stroke-linejoin:round;stroke-miterlimit:10;"/>
<path d="   M275.867,68h-60v40h27.991c11.051,0,22.583-8.581,25.763-19.18L275.867,68z" style="fill-rule:evenodd;clip-rule:evenodd;fill:#DDDDDD;stroke:#000000;stroke-width:7.7333;stroke-linecap:round;stroke-linejoin:round;stroke-miterlimit:10;"/>
<path d="   M91.867,46.028c0-5.539,4.439-10.028,10-10.028c5.523,0,10,4.487,10,10.028V72h-20V46.028z" style="fill-rule:evenodd;clip-rule:evenodd;fill:#777777;stroke:#000000;stroke-width:8;stroke-linecap:round;stroke-linejoin:round;stroke-miterlimit:10;"/>
<path d="   M195.867,46.028c0-5.539,4.439-10.028,10-10.028c5.523,0,10,4.487,10,10.028V72h-20V46.028z" style="fill-rule:evenodd;clip-rule:evenodd;fill:#777777;stroke:#000000;stroke-width:8;stroke-linecap:round;stroke-linejoin:round;stroke-miterlimit:10;"/>
<polygon points="   87.867,68 215.867,68 227.867,172 75.867,172  " style="fill-rule:evenodd;clip-rule:evenodd;fill:#DDDDDD;stroke:#000000;stroke-width:7.7333;stroke-linecap:round;stroke-linejoin:round;stroke-miterlimit:10;"/>
<path d="   M67.867,187.974c0-15.45,12.559-27.974,28.025-27.974h111.95c15.478,0,28.025,12.522,28.025,27.974v32.043   c0,28.71-23.271,51.984-52.006,51.984h-63.989c-28.722,0-52.006-23.274-52.006-51.984V187.974z" style="fill-rule:evenodd;clip-rule:evenodd;fill:#F87EA1;stroke:#000000;stroke-width:8;stroke-linecap:round;stroke-linejoin:round;stroke-miterlimit:10;"/>
<circle cx="187.867" cy="216" r="16" style="fill-rule:evenodd;clip-rule:evenodd;fill:#595959;stroke:#000000;stroke-width:8;stroke-linecap:round;stroke-linejoin:round;stroke-miterlimit:10;"/>
<circle cx="115.867" cy="216" r="16" style="fill-rule:evenodd;clip-rule:evenodd;fill:#595959;stroke:#000000;stroke-width:8;stroke-linecap:round;stroke-linejoin:round;stroke-miterlimit:10;"/>
<circle cx="127.867" cy="132" r="8" style="fill-rule:evenodd;clip-rule:evenodd;fill:#26BBEC;stroke:#000000;stroke-width:8;stroke-linecap:round;stroke-linejoin:round;stroke-miterlimit:10;"/>
<circle cx="175.867" cy="132" r="8" style="fill-rule:evenodd;clip-rule:evenodd;fill:#26BBEC;stroke:#000000;stroke-width:8;stroke-linecap:round;stroke-linejoin:round;stroke-miterlimit:10;"/>
</g>
<g/>
<g/>
<g/>
<g/>
<g/>
<g/>
<g/>
<g/>
<g/>
<g/>
<g/>
<g/>
<g/>
<g/>
<g/>
</svg>