<?xml version="1.0" ?>
<!-- Uploaded to: SVG Repo, www.svgrepo.com, Generator: SVG Repo Mixer Tools -->
<svg width="800px" height="800px" viewBox="0 0 300 300" id="octopus" version="1.1" xml:space="preserve" xmlns="http://www.w3.org/2000/svg" xmlns:xlink="http://www.w3.org/1999/xlink">
<g>
<path d="   M58.985,124.888c0,0-29.197,45.689,24.586,41.242c53.782-4.447,18.892-81.756,21.886-95.803   c2.994-14.047,15.823-35.353,54.72-31.968c38.897,3.385,38.176,30.051,38.176,41.754c0,11.703-18.707,66.074-0.626,76.045   c18.081,9.972,73.226,21.348,52.252-30.237l3.485-8.818c0,0,33.603,35.771-1.368,59.919c-34.97,24.148-82.947-13.415-82.947-13.415   S153.657,247.914,200,254c46.343,6.086,54.329-20.349,54.329-25.465c0-5.116,8.931,5.492,8.931,5.492s-13.196,40.699-61.105,35.517   s-71.893-50.107-78.326-96.865c0,0-26.939,22.09-49.127,16.795c-22.187-5.295-50.758-26.521-23.657-71.209L58.985,124.888z" style="fill-rule:evenodd;clip-rule:evenodd;fill:#ED5481;stroke:#000000;stroke-width:8;stroke-linecap:round;stroke-linejoin:round;stroke-miterlimit:10;"/>
<circle cx="150" cy="92" r="22" style="fill-rule:evenodd;clip-rule:evenodd;fill:#FCAD3A;stroke:#000000;stroke-width:8;stroke-linecap:round;stroke-linejoin:round;stroke-miterlimit:10;"/>
<circle cx="150" cy="92" r="10" style="fill-rule:evenodd;clip-rule:evenodd;fill:#85D839;stroke:#000000;stroke-width:8;stroke-linecap:round;stroke-linejoin:round;stroke-miterlimit:10;"/>
</g>
<g/>
<g/>
<g/>
<g/>
<g/>
<g/>
<g/>
<g/>
<g/>
<g/>
<g/>
<g/>
<g/>
<g/>
<g/>
</svg>