<?xml version="1.0" ?>
<!-- Uploaded to: SVG Repo, www.svgrepo.com, Generator: SVG Repo Mixer Tools -->
<svg width="800px" height="800px" viewBox="0 0 300 300" id="monkey2" version="1.1" xml:space="preserve" xmlns="http://www.w3.org/2000/svg" xmlns:xlink="http://www.w3.org/1999/xlink">
<g>
<circle cx="74" cy="74" r="32" style="fill-rule:evenodd;clip-rule:evenodd;fill:#997843;stroke:#000000;stroke-width:8;stroke-linecap:round;stroke-linejoin:round;stroke-miterlimit:10;"/>
<circle cx="234" cy="74" r="32" style="fill-rule:evenodd;clip-rule:evenodd;fill:#997843;stroke:#000000;stroke-width:8;stroke-linecap:round;stroke-linejoin:round;stroke-miterlimit:10;"/>
<path d="   M154,266c147.753,0,88.091-88.145,88.091-136.481S202.652,42,154,42s-88.091,39.183-88.091,87.519S6.247,266,154,266z" style="fill-rule:evenodd;clip-rule:evenodd;fill:#997843;stroke:#000000;stroke-width:8;stroke-linecap:round;stroke-linejoin:round;stroke-miterlimit:10;"/>
<path d="   M154,109.996C146.702,100.283,135.085,94,122,94c-22.091,0-40,17.909-40,40s17.909,40,40,40c13.085,0,24.702-6.283,32-15.996   c7.298,9.713,18.915,15.996,32,15.996c22.091,0,40-17.909,40-40s-17.909-40-40-40C172.915,94,161.298,100.283,154,109.996z" style="fill-rule:evenodd;clip-rule:evenodd;fill:#777777;stroke:#000000;stroke-width:8;stroke-linecap:round;stroke-linejoin:round;stroke-miterlimit:10;"/>
<path d="   M154,250c24.3,0,44-17.909,44-40s-19.7-64-44-64s-44,41.909-44,64S129.7,250,154,250z" style="fill-rule:evenodd;clip-rule:evenodd;fill:#DDDDDD;stroke:#000000;stroke-width:7.7333;stroke-linecap:round;stroke-linejoin:round;stroke-miterlimit:10;"/>
<path d="   M114,218c12.101-5.113,25.839-8,40.402-8c14.241,0,27.693,2.761,39.598,7.664" style="fill:none;stroke:#000000;stroke-width:8;stroke-linecap:round;stroke-linejoin:round;stroke-miterlimit:10;"/>
<circle cx="122" cy="126" r="8" style="fill-rule:evenodd;clip-rule:evenodd;"/>
<circle cx="190" cy="126" r="8" style="fill-rule:evenodd;clip-rule:evenodd;"/>
<path d="   M148.875,164.466c2.829-3.296,7.43-3.281,10.246,0l13.365,15.566c2.829,3.296,1.574,5.967-2.781,5.967h-31.415   c-4.365,0-5.597-2.687-2.781-5.967L148.875,164.466z" style="fill-rule:evenodd;clip-rule:evenodd;fill:#595959;stroke:#000000;stroke-width:8;stroke-linecap:round;stroke-linejoin:round;stroke-miterlimit:10;"/>
</g>
<g/>
<g/>
<g/>
<g/>
<g/>
<g/>
<g/>
<g/>
<g/>
<g/>
<g/>
<g/>
<g/>
<g/>
<g/>
</svg>