<?xml version="1.0" ?>
<!-- Uploaded to: SVG Repo, www.svgrepo.com, Generator: SVG Repo Mixer Tools -->
<svg width="800px" height="800px" viewBox="0 0 300 300" id="orangoutang" version="1.1" xml:space="preserve" xmlns="http://www.w3.org/2000/svg" xmlns:xlink="http://www.w3.org/1999/xlink">
<g>
<ellipse cx="232" cy="114" rx="33.241" ry="21.509" style="fill-rule:evenodd;clip-rule:evenodd;fill:#777777;stroke:#000000;stroke-width:8;stroke-linecap:round;stroke-linejoin:round;stroke-miterlimit:10;" transform="matrix(0.7071 -0.7071 0.7071 0.7071 -12.6589 197.4386)"/>
<ellipse cx="76" cy="114" rx="21.509" ry="33.241" style="fill-rule:evenodd;clip-rule:evenodd;fill:#777777;stroke:#000000;stroke-width:8;stroke-linecap:round;stroke-linejoin:round;stroke-miterlimit:10;" transform="matrix(0.7071 -0.7071 0.7071 0.7071 -58.3503 87.1299)"/>
<path d="   M156,274c48.601,0,92-51.399,92-100S204.601,34,156,34s-92,91.399-92,140S107.399,274,156,274z" style="fill-rule:evenodd;clip-rule:evenodd;fill:#777777;stroke:#000000;stroke-width:8;stroke-linecap:round;stroke-linejoin:round;stroke-miterlimit:10;"/>
<path d="   M156,133.996C148.702,124.283,137.085,118,124,118c-22.091,0-40,17.909-40,40s17.909,40,40,40c13.085,0,24.702-6.283,32-15.996   c7.298,9.713,18.915,15.996,32,15.996c22.091,0,40-17.909,40-40s-17.909-40-40-40C174.915,118,163.298,124.283,156,133.996z" style="fill-rule:evenodd;clip-rule:evenodd;fill:#595959;stroke:#000000;stroke-width:8;stroke-linecap:round;stroke-linejoin:round;stroke-miterlimit:10;"/>
<path d="   M156,238c22.091,0,40-17.909,40-40s-17.909-64-40-64s-40,41.909-40,64S133.909,238,156,238z" style="fill-rule:evenodd;clip-rule:evenodd;fill:#777777;stroke:#000000;stroke-width:8;stroke-linecap:round;stroke-linejoin:round;stroke-miterlimit:10;"/>
<path d="   M196,218c-12.102-5.113-25.84-8-40.403-8c-14.241,0-27.693,2.761-39.597,7.664" style="fill:#777777;stroke:#000000;stroke-width:8;stroke-linecap:round;stroke-linejoin:round;stroke-miterlimit:10;"/>
<circle cx="132" cy="138" r="8" style="fill-rule:evenodd;clip-rule:evenodd;"/>
<circle cx="180" cy="138" r="8" style="fill-rule:evenodd;clip-rule:evenodd;"/>
<path d="   M140,170.02c0-4.429,3.547-8.02,7.992-8.02h16.015c4.414,0,7.992,3.576,7.992,8.02v3.961c0,4.429-3.547,8.02-7.992,8.02h-16.015   c-4.414,0-7.992-3.576-7.992-8.02V170.02z" style="fill-rule:evenodd;clip-rule:evenodd;fill:#595959;stroke:#000000;stroke-width:8;stroke-linecap:round;stroke-linejoin:round;stroke-miterlimit:10;"/>
</g>
<g/>
<g/>
<g/>
<g/>
<g/>
<g/>
<g/>
<g/>
<g/>
<g/>
<g/>
<g/>
<g/>
<g/>
<g/>
</svg>