<?xml version="1.0" ?>
<!-- Uploaded to: SVG Repo, www.svgrepo.com, Generator: SVG Repo Mixer Tools -->
<svg width="800px" height="800px" viewBox="0 0 300 300" id="ryno" version="1.1" xml:space="preserve" xmlns="http://www.w3.org/2000/svg" xmlns:xlink="http://www.w3.org/1999/xlink">
<g>
<path d="   M45.455,42L96,71.703L76.545,106l-23.58-13.857c-9.309-5.47-14.85-18.537-12.374-29.199L45.455,42z" style="fill-rule:evenodd;clip-rule:evenodd;fill:#595959;stroke:#000000;stroke-width:8;stroke-linecap:round;stroke-linejoin:round;stroke-miterlimit:10;"/>
<path d="   M262.545,42L212,71.703L231.455,106l23.58-13.857c9.309-5.47,14.85-18.537,12.374-29.199L262.545,42z" style="fill-rule:evenodd;clip-rule:evenodd;fill:#595959;stroke:#000000;stroke-width:8;stroke-linecap:round;stroke-linejoin:round;stroke-miterlimit:10;"/>
<path d="   M90,190h128l18-64l-3.757-40.078C231.004,72.71,219.251,62,205.999,62H102.001c-13.255,0-25.005,10.712-26.244,23.922L72,126   L90,190z" style="fill-rule:evenodd;clip-rule:evenodd;fill:#777777;stroke:#000000;stroke-width:8;stroke-linecap:round;stroke-linejoin:round;stroke-miterlimit:10;"/>
<path d="   M68,238.012C68,253.469,80.558,266,96.025,266h111.95C223.453,266,236,253.436,236,238.012V216c0-27.615-22.396-50-50.008-50   h-67.985C90.389,166,68,188.38,68,216V238.012z" style="fill-rule:evenodd;clip-rule:evenodd;fill:#DDDDDD;stroke:#000000;stroke-width:7.7333;stroke-linecap:round;stroke-linejoin:round;stroke-miterlimit:10;"/>
<path d="   M104.611,249.785c6.814-1.76,9.377-13.835,5.726-26.971c-3.652-13.136-12.135-22.358-18.949-20.598   c-6.814,1.76-9.377,13.835-5.726,26.971C89.314,242.323,97.798,251.544,104.611,249.785z" style="fill-rule:evenodd;clip-rule:evenodd;fill:#595959;stroke:#000000;stroke-width:8;stroke-linecap:round;stroke-linejoin:round;stroke-miterlimit:10;"/>
<path d="   M199.389,249.785c-6.814-1.76-9.377-13.835-5.726-26.971c3.652-13.136,12.135-22.358,18.949-20.598   c6.814,1.76,9.377,13.835,5.726,26.971C214.686,242.323,206.202,251.544,199.389,249.785z" style="fill-rule:evenodd;clip-rule:evenodd;fill:#595959;stroke:#000000;stroke-width:8;stroke-linecap:round;stroke-linejoin:round;stroke-miterlimit:10;"/>
<circle cx="96" cy="150" r="8" style="fill-rule:evenodd;clip-rule:evenodd;fill:#595959;stroke:#000000;stroke-width:8;stroke-linecap:round;stroke-linejoin:round;stroke-miterlimit:10;"/>
<circle cx="208" cy="150" r="8" style="fill-rule:evenodd;clip-rule:evenodd;fill:#595959;stroke:#000000;stroke-width:8;stroke-linecap:round;stroke-linejoin:round;stroke-miterlimit:10;"/>
<path d="   M152,42l24,128c0,0-12,8-24,8s-24-8-24-8L152,42z" style="fill-rule:evenodd;clip-rule:evenodd;fill:#DDDDDD;stroke:#000000;stroke-width:7.7333;stroke-linecap:round;stroke-linejoin:round;stroke-miterlimit:10;"/>
</g>
<g/>
<g/>
<g/>
<g/>
<g/>
<g/>
<g/>
<g/>
<g/>
<g/>
<g/>
<g/>
<g/>
<g/>
<g/>
</svg>