<?xml version="1.0" ?>
<!-- Uploaded to: SVG Repo, www.svgrepo.com, Generator: SVG Repo Mixer Tools -->
<svg width="800px" height="800px" viewBox="0 0 300 300" id="seathing" version="1.1" xml:space="preserve" xmlns="http://www.w3.org/2000/svg" xmlns:xlink="http://www.w3.org/1999/xlink">
<g>
<path d="   M154,40C124.361,40,54,85.127,54,140.795c27.356,0,38.856-2.092,50.412,6.199c11.555,8.291,8.338,22.955,22.707,33.666   c10.068,7.505,16.451,0.572,26.881-3.383V40z" style="fill-rule:evenodd;clip-rule:evenodd;fill:#26BBEC;stroke:#000000;stroke-width:8;stroke-linecap:round;stroke-linejoin:round;stroke-miterlimit:10;"/>
<circle cx="126" cy="76" r="8" style="fill-rule:evenodd;clip-rule:evenodd;fill:#26BBEC;stroke:#000000;stroke-width:8;stroke-linecap:round;stroke-linejoin:round;stroke-miterlimit:10;"/>
<path d="   M154,40c29.639,0,100,45.127,100,100.795c-27.356,0-38.856-2.092-50.412,6.199c-11.555,8.291-8.338,22.955-22.707,33.666   c-10.068,7.505-16.451,0.572-26.881-3.383V40z" style="fill-rule:evenodd;clip-rule:evenodd;fill:#2A8EE6;stroke:#000000;stroke-width:8;stroke-linecap:round;stroke-linejoin:round;stroke-miterlimit:10;"/>
<circle cx="182" cy="76" r="8" style="fill-rule:evenodd;clip-rule:evenodd;fill:#26BBEC;stroke:#000000;stroke-width:8;stroke-linecap:round;stroke-linejoin:round;stroke-miterlimit:10;"/>
<path d="   M154,40v220.019c0,4.408,3.624,7.981,8.007,7.981h24.03c4.422,0,8.007-3.549,8.007-8.015v-48.281c0-4.427,3.571-8.015,8.004-8.015   h35.948c4.421,0,8.004,3.549,8.004,7.996v16.023c0,4.416-3.617,7.996-8.002,7.996h-11.662c-4.419,0-8.002-3.627-8.002-8.019v-7.844   " style="fill:none;stroke:#000000;stroke-width:8;stroke-linecap:round;stroke-linejoin:round;stroke-miterlimit:10;"/>
</g>
<g/>
<g/>
<g/>
<g/>
<g/>
<g/>
<g/>
<g/>
<g/>
<g/>
<g/>
<g/>
<g/>
<g/>
<g/>
</svg>