<?xml version="1.0" ?>
<!-- Uploaded to: SVG Repo, www.svgrepo.com, Generator: SVG Repo Mixer Tools -->
<svg width="800px" height="800px" viewBox="0 0 300 300" id="octopus3" version="1.1" xml:space="preserve" xmlns="http://www.w3.org/2000/svg" xmlns:xlink="http://www.w3.org/1999/xlink">
<g>
<path d="   M142,156v104c0,4.418,3.582,8,8,8s8-3.582,8-8V156c0-4.418-3.582-8-8-8S142,151.582,142,156z" style="fill:#ED5481;stroke:#000000;stroke-width:8;stroke-linecap:round;stroke-linejoin:round;stroke-miterlimit:10;"/>
<path d="   M112.512,163.448c0.04,0.181,0.123,0.598,0.235,1.228c0.196,1.092,0.393,2.355,0.578,3.767c1.316,10.048,1.271,20.817-1.016,30.744   c-4.071,17.675-14.41,29.193-33.447,32.709c-3.207,0.592-5.342,3.76-4.769,7.076c0.573,3.316,3.637,5.524,6.844,4.932   c23.986-4.431,37.752-19.765,42.848-41.891c2.673-11.606,2.725-23.796,1.23-35.207c-0.364-2.78-0.735-4.852-0.998-6.053   c-0.72-3.285-3.878-5.345-7.056-4.601C113.784,156.896,111.792,160.162,112.512,163.448z" style="fill:#ED5481;stroke:#000000;stroke-width:8;stroke-linecap:round;stroke-linejoin:round;stroke-miterlimit:10;"/>
<path d="   M175.983,160.753c-0.263,1.201-0.634,3.273-0.998,6.053c-1.495,11.411-1.443,23.601,1.23,35.207   c5.096,22.126,18.862,37.461,42.848,41.891c3.207,0.592,6.271-1.615,6.843-4.932c0.573-3.316-1.562-6.484-4.769-7.076   c-19.037-3.516-29.376-15.034-33.447-32.709c-2.287-9.927-2.332-20.695-1.016-30.744c0.185-1.412,0.382-2.675,0.578-3.767   c0.113-0.63,0.196-1.047,0.236-1.228c0.72-3.285-1.272-6.551-4.45-7.296C179.862,155.408,176.703,157.468,175.983,160.753z" style="fill:#ED5481;stroke:#000000;stroke-width:8;stroke-linecap:round;stroke-linejoin:round;stroke-miterlimit:10;"/>
<circle cx="186" cy="216" r="12" style="fill-rule:evenodd;clip-rule:evenodd;fill:#ED5481;stroke:#000000;stroke-width:8;stroke-linecap:round;stroke-linejoin:round;stroke-miterlimit:10;"/>
<circle cx="114" cy="216" r="12" style="fill-rule:evenodd;clip-rule:evenodd;fill:#ED5481;stroke:#000000;stroke-width:8;stroke-linecap:round;stroke-linejoin:round;stroke-miterlimit:10;"/>
<circle cx="150" cy="228" r="16" style="fill-rule:evenodd;clip-rule:evenodd;fill:#ED5481;stroke:#000000;stroke-width:8;stroke-linecap:round;stroke-linejoin:round;stroke-miterlimit:10;"/>
<path d="   M154,164.768c57.438,0,104,36.099,104-21.136S211.438,40,154,40S50,86.398,50,143.632S96.562,164.768,154,164.768z" style="fill-rule:evenodd;clip-rule:evenodd;fill:#F87EA1;stroke:#000000;stroke-width:8;stroke-linecap:round;stroke-linejoin:round;stroke-miterlimit:10;"/>
</g>
<g/>
<g/>
<g/>
<g/>
<g/>
<g/>
<g/>
<g/>
<g/>
<g/>
<g/>
<g/>
<g/>
<g/>
<g/>
</svg>