<?xml version="1.0" ?>
<!-- Uploaded to: SVG Repo, www.svgrepo.com, Generator: SVG Repo Mixer Tools -->
<svg width="800px" height="800px" viewBox="0 0 300 300" id="whale" version="1.1" xml:space="preserve" xmlns="http://www.w3.org/2000/svg" xmlns:xlink="http://www.w3.org/1999/xlink">
<g>
<path d="   M158,155.867c0,0-11.97-19.582-40.289-26.738c-28.32-7.156-51.572-48.164-41.19-73.262c0,0,10.696,9.729,42.555,11.293   c31.859,1.563,34.89,33.154,34.89,33.154L158,155.867z" style="fill-rule:evenodd;clip-rule:evenodd;fill:#DDDDDD;stroke:#000000;stroke-width:7.7333;stroke-linecap:round;stroke-linejoin:round;stroke-miterlimit:10;"/>
<path d="   M150,155.867c0,0,11.97-19.582,40.289-26.738c28.32-7.156,51.572-48.164,41.19-73.262c0,0-10.696,9.729-42.555,11.293   c-31.859,1.563-34.89,33.154-34.89,33.154L150,155.867z" style="fill-rule:evenodd;clip-rule:evenodd;fill:#DDDDDD;stroke:#000000;stroke-width:7.7333;stroke-linecap:round;stroke-linejoin:round;stroke-miterlimit:10;"/>
<path d="   M26,147.867l19.169,14.376c7.086,5.315,18.223,4.906,24.883-0.922l7.896-6.909c6.656-5.824,17.444-5.828,24.104,0l7.896,6.909   c6.656,5.824,17.444,5.828,24.104,0l7.896-6.909c6.656-5.824,17.444-5.828,24.104,0l7.896,6.909c6.656,5.824,17.444,5.828,24.104,0   l7.896-6.909c6.656-5.824,17.444-5.828,24.104,0l7.896,6.909c6.656,5.824,17.773,6.255,24.883,0.922L282,147.867v64H26V147.867z" style="fill-rule:evenodd;clip-rule:evenodd;fill:#2A8EE6;stroke:#000000;stroke-width:8;stroke-linecap:round;stroke-linejoin:round;stroke-miterlimit:10;"/>
<path d="   M26,187.867l19.169,14.376c7.086,5.315,18.223,4.906,24.883-0.922l7.896-6.909c6.656-5.824,17.444-5.828,24.104,0l7.896,6.909   c6.656,5.824,17.444,5.828,24.104,0l7.896-6.909c6.656-5.824,17.444-5.828,24.104,0l7.896,6.909c6.656,5.824,17.444,5.828,24.104,0   l7.896-6.909c6.656-5.824,17.444-5.828,24.104,0l7.896,6.909c6.656,5.824,17.773,6.255,24.883,0.922L282,187.867v64H26V187.867z" style="fill-rule:evenodd;clip-rule:evenodd;fill:#26BBEC;stroke:#000000;stroke-width:8;stroke-linecap:round;stroke-linejoin:round;stroke-miterlimit:10;"/>
</g>
<g/>
<g/>
<g/>
<g/>
<g/>
<g/>
<g/>
<g/>
<g/>
<g/>
<g/>
<g/>
<g/>
<g/>
<g/>
</svg>