<?xml version="1.0" ?>
<!-- Uploaded to: SVG Repo, www.svgrepo.com, Generator: SVG Repo Mixer Tools -->
<svg width="800px" height="800px" viewBox="0 0 300 300" id="worm" version="1.1" xml:space="preserve" xmlns="http://www.w3.org/2000/svg" xmlns:xlink="http://www.w3.org/1999/xlink">
<g>
<line style="fill:#26BBEC;stroke:#000000;stroke-width:8;stroke-linecap:round;stroke-linejoin:round;stroke-miterlimit:10;" x1="246" x2="230" y1="178.015" y2="110.015"/>
<path d="M210,178.015c-0.203,3.145,2.856-32.357-21.263-65.056   c-23.989-32.522-33.646-36.986-47.137-36.986c-13.491,0-35.761-7.337-62.998,6.392c-27.237,13.729-37.44,30.428-43.141,47.943   c-5.7,17.515,5.457,54.037,30.275,69.295c7.418,4.56,5.553,24.676,57.77,22.202C175.723,219.331,210,178.015,210,178.015z" style="fill-rule:evenodd;clip-rule:evenodd;fill:#F87EA1;"/>
<path d="   M210,174.015c0,0-11.677-128.222-120.921-94.326c-109.244,33.896-30.399,142.326,18.051,142.326   c48.45,0,93.57-64.019,35.925-95.442c-50.77-27.676-80.458,45.891-45.69,57.337c34.768,11.446,45.69-18.152,34.889-30.616" style="fill:none;stroke:#000000;stroke-width:8;stroke-linecap:round;stroke-linejoin:round;stroke-miterlimit:10;"/>
<line style="fill:#26BBEC;stroke:#000000;stroke-width:8;stroke-linecap:round;stroke-linejoin:round;stroke-miterlimit:10;" x1="242" x2="274" y1="182.015" y2="102.015"/>
<path d="   M83.68,215.283L54,234.015h165.751c16.706,0,30.249-13.465,30.249-30v-30h-42.73L83.68,215.283z" style="fill-rule:evenodd;clip-rule:evenodd;fill:#DDDDDD;stroke:#000000;stroke-width:7.7333;stroke-linecap:round;stroke-linejoin:round;stroke-miterlimit:10;"/>
</g>
<g/>
<g/>
<g/>
<g/>
<g/>
<g/>
<g/>
<g/>
<g/>
<g/>
<g/>
<g/>
<g/>
<g/>
<g/>
</svg>