<?xml version="1.0" ?>
<!-- Uploaded to: SVG Repo, www.svgrepo.com, Generator: SVG Repo Mixer Tools -->
<svg width="800px" height="800px" viewBox="0 0 300 300" id="fly4" version="1.1" xml:space="preserve" xmlns="http://www.w3.org/2000/svg" xmlns:xlink="http://www.w3.org/1999/xlink">
<g>
<ellipse cx="151.867" cy="178" rx="28" ry="84" style="fill-rule:evenodd;clip-rule:evenodd;fill:#85D839;stroke:#000000;stroke-width:8;stroke-linecap:round;stroke-linejoin:round;stroke-miterlimit:10;"/>
<path d="   M167.867,159.051c0-6.51,4.921-13.936,10.95-16.568l68.886-30.073c15.555-6.791,28.164,1.268,28.164,17.94v2.394   c0,16.699-13.788,31.239-30.732,32.472l-65.298,4.751C173.226,170.449,167.867,165.548,167.867,159.051z" style="fill-rule:evenodd;clip-rule:evenodd;fill:#DDDDDD;stroke:#000000;stroke-width:7.7333;stroke-linecap:round;stroke-linejoin:round;stroke-miterlimit:10;"/>
<path d="   M172.45,186.116c-7.116-5.281-5.812-8.859,2.985-7.984l86.118,8.563c11.787,1.172,13.766,8.11,4.407,15.507l-17.849,14.108   c-9.353,7.393-24.735,7.597-34.27,0.521L172.45,186.116z" style="fill-rule:evenodd;clip-rule:evenodd;fill:#DDDDDD;stroke:#000000;stroke-width:7.7333;stroke-linecap:round;stroke-linejoin:round;stroke-miterlimit:10;"/>
<path d="   M139.867,159.051c0-6.51-4.921-13.936-10.95-16.568L60.031,112.41c-15.555-6.791-28.164,1.268-28.164,17.94v2.394   c0,16.699,13.788,31.239,30.732,32.472l65.298,4.751C134.507,170.449,139.867,165.548,139.867,159.051z" style="fill-rule:evenodd;clip-rule:evenodd;fill:#DDDDDD;stroke:#000000;stroke-width:7.7333;stroke-linecap:round;stroke-linejoin:round;stroke-miterlimit:10;"/>
<path d="   M131.284,186.116c7.116-5.281,5.811-8.859-2.986-7.984l-86.118,8.563c-11.787,1.172-13.766,8.11-4.407,15.507l17.85,14.108   c9.353,7.393,24.735,7.597,34.27,0.521L131.284,186.116z" style="fill-rule:evenodd;clip-rule:evenodd;fill:#DDDDDD;stroke:#000000;stroke-width:7.7333;stroke-linecap:round;stroke-linejoin:round;stroke-miterlimit:10;"/>
<path d="   M147.801,70c0,0,1.991-15.91-15.934-24" style="fill:#26BBEC;stroke:#000000;stroke-width:8;stroke-linecap:round;stroke-linejoin:round;stroke-miterlimit:10;"/>
<path d="   M155.868,78c0,0-0.414-13.711,11.998-24" style="fill:#26BBEC;stroke:#000000;stroke-width:8;stroke-linecap:round;stroke-linejoin:round;stroke-miterlimit:10;"/>
<circle cx="151.867" cy="94" r="24" style="fill-rule:evenodd;clip-rule:evenodd;fill:#26BBEC;stroke:#000000;stroke-width:8;stroke-linecap:round;stroke-linejoin:round;stroke-miterlimit:10;"/>
<path d="   M142.694,89.945c3.314-5.923-0.847-9.811-6.826-13.094c-5.979-3.283-11.513-4.718-14.828,1.205   c-3.314,5.923,0.847,9.811,6.826,13.094C133.845,94.433,139.379,95.868,142.694,89.945z" style="fill-rule:evenodd;clip-rule:evenodd;fill:#595959;stroke:#000000;stroke-width:8;stroke-linecap:round;stroke-linejoin:round;stroke-miterlimit:10;"/>
<path d="   M161.04,89.945c-3.314-5.923,0.847-9.811,6.826-13.094c5.979-3.283,11.513-4.718,14.828,1.205   c3.314,5.923-0.847,9.811-6.826,13.094C169.888,94.433,164.354,95.868,161.04,89.945z" style="fill-rule:evenodd;clip-rule:evenodd;fill:#595959;stroke:#000000;stroke-width:8;stroke-linecap:round;stroke-linejoin:round;stroke-miterlimit:10;"/>
</g>
<g/>
<g/>
<g/>
<g/>
<g/>
<g/>
<g/>
<g/>
<g/>
<g/>
<g/>
<g/>
<g/>
<g/>
<g/>
</svg>