<?xml version="1.0" ?>
<!-- Uploaded to: SVG Repo, www.svgrepo.com, Generator: SVG Repo Mixer Tools -->
<svg width="800px" height="800px" viewBox="0 0 300 300" id="dog2" version="1.1" xml:space="preserve" xmlns="http://www.w3.org/2000/svg" xmlns:xlink="http://www.w3.org/1999/xlink">
<g>
<path d="   M45.187,62.829c-12.279,18.117-8.438,41.386,8.579,51.974c17.018,10.588,40.768,4.486,53.047-13.631   c12.279-18.117,8.438-41.385-8.58-51.973C81.216,38.61,57.466,44.712,45.187,62.829z" style="fill-rule:evenodd;clip-rule:evenodd;fill:#FFDD95;stroke:#000000;stroke-width:8;stroke-linecap:round;stroke-linejoin:round;stroke-miterlimit:10;"/>
<path d="   M262.813,62.829c12.28,18.117,8.439,41.386-8.579,51.974c-17.018,10.588-40.768,4.486-53.047-13.631   c-12.28-18.117-8.439-41.385,8.579-51.973S250.534,44.712,262.813,62.829z" style="fill-rule:evenodd;clip-rule:evenodd;fill:#FFDD95;stroke:#000000;stroke-width:8;stroke-linecap:round;stroke-linejoin:round;stroke-miterlimit:10;"/>
<path d="   M138,232h28v24.012c0,6.62-5.399,11.988-12.037,11.988h-3.926c-6.648,0-12.037-5.388-12.037-11.988V232z" style="fill-rule:evenodd;clip-rule:evenodd;fill:#ED5481;stroke:#000000;stroke-width:8;stroke-linecap:round;stroke-linejoin:round;stroke-miterlimit:10;"/>
<path d="   M70,94c0-29.824,24.199-54,53.984-54h56.033C209.831,40,234,64.172,234,94v54H70V94z" style="fill-rule:evenodd;clip-rule:evenodd;fill:#997843;stroke:#000000;stroke-width:8;stroke-linecap:round;stroke-linejoin:round;stroke-miterlimit:10;"/>
<path d="   M98,97.976C98,85.84,107.875,76,120,76c12.15,0,22,9.84,22,21.976V128H98V97.976z" style="fill-rule:evenodd;clip-rule:evenodd;fill:#FBAD4A;stroke:#000000;stroke-width:8;stroke-linecap:round;stroke-linejoin:round;stroke-miterlimit:10;"/>
<circle cx="122" cy="100" r="8" style="fill-rule:evenodd;clip-rule:evenodd;"/>
<path d="   M166,97.976C166,85.84,175.875,76,188,76c12.15,0,22,9.84,22,21.976V128h-44V97.976z" style="fill-rule:evenodd;clip-rule:evenodd;fill:#FBAD4A;stroke:#000000;stroke-width:8;stroke-linecap:round;stroke-linejoin:round;stroke-miterlimit:10;"/>
<circle cx="186" cy="100" r="8" style="fill-rule:evenodd;clip-rule:evenodd;"/>
<path d="   M152,129.964c-9.427-8.76-21.213-13.964-34-13.964c-30.928,0-56,30.444-56,68s25.072,68,56,68c12.787,0,24.573-5.204,34-13.964   c9.427,8.76,21.213,13.964,34,13.964c30.928,0,56-30.444,56-68s-25.072-68-56-68C173.213,116,161.427,121.204,152,129.964z" style="fill-rule:evenodd;clip-rule:evenodd;fill:#FFDD95;stroke:#000000;stroke-width:8;stroke-linecap:round;stroke-linejoin:round;stroke-miterlimit:10;"/>
<path d="   M152,148c9.941,0,26-0.06,26-10s-16.059-26-26-26s-26,16.06-26,26S142.059,148,152,148z" style="fill-rule:evenodd;clip-rule:evenodd;fill:#777777;stroke:#000000;stroke-width:8;stroke-linecap:round;stroke-linejoin:round;stroke-miterlimit:10;"/>
<line style="fill:none;stroke:#000000;stroke-width:8;stroke-linecap:round;stroke-linejoin:round;stroke-miterlimit:10;" x1="198" x2="262" y1="176" y2="164"/>
<line style="fill:none;stroke:#000000;stroke-width:8;stroke-linecap:round;stroke-linejoin:round;stroke-miterlimit:10;" x1="202" x2="258" y1="192" y2="196"/>
<line style="fill:none;stroke:#000000;stroke-width:8;stroke-linecap:round;stroke-linejoin:round;stroke-miterlimit:10;" x1="102" x2="38" y1="176" y2="164"/>
<line style="fill:none;stroke:#000000;stroke-width:8;stroke-linecap:round;stroke-linejoin:round;stroke-miterlimit:10;" x1="98" x2="42" y1="192" y2="196"/>
</g>
<g/>
<g/>
<g/>
<g/>
<g/>
<g/>
<g/>
<g/>
<g/>
<g/>
<g/>
<g/>
<g/>
<g/>
<g/>
</svg>