<?xml version="1.0" ?>
<!-- Uploaded to: SVG Repo, www.svgrepo.com, Generator: SVG Repo Mixer Tools -->
<svg width="800px" height="800px" viewBox="0 0 300 300" id="sheep" version="1.1" xml:space="preserve" xmlns="http://www.w3.org/2000/svg" xmlns:xlink="http://www.w3.org/1999/xlink">
<g>
<path d="   M95.312,96c0,0-54.978,14.953-65.446,67.865c0,0,29.245,12.532,68-6.037" style="fill-rule:evenodd;clip-rule:evenodd;fill:#DDDDDD;stroke:#000000;stroke-width:7.7333;stroke-linecap:round;stroke-linejoin:round;stroke-miterlimit:10;"/>
<path d="   M212.421,96c0,0,54.977,14.953,65.446,67.865c0,0-29.245,12.532-68-6.037" style="fill-rule:evenodd;clip-rule:evenodd;fill:#DDDDDD;stroke:#000000;stroke-width:7.7333;stroke-linecap:round;stroke-linejoin:round;stroke-miterlimit:10;"/>
<ellipse cx="153.867" cy="164" rx="84" ry="108" style="fill-rule:evenodd;clip-rule:evenodd;fill:#DDDDDD;stroke:#000000;stroke-width:7.7333;stroke-linecap:round;stroke-linejoin:round;stroke-miterlimit:10;"/>
<path d="   M209.867,60c-1.581,0-3.1,0.229-4.575,0.575c0.347-1.475,0.575-2.994,0.575-4.575c0-11.046-8.954-20-20-20   c-6.573,0-12.354,3.214-16,8.11c-3.646-4.896-9.427-8.11-16-8.11c-5.457,0-10.392,2.198-14,5.741   c-3.608-3.543-8.543-5.741-14-5.741c-11.046,0-20,8.954-20,20c0,1.581,0.229,3.1,0.575,4.575c-1.475-0.347-2.994-0.575-4.575-0.575   c-11.046,0-20,8.954-20,20s8.954,20,20,20c1.878,0,3.659-0.342,5.382-0.826c2.889,7.49,10.109,12.826,18.618,12.826   s15.729-5.336,18.618-12.826c1.723,0.484,3.504,0.826,5.382,0.826c7.964,0,14.782-4.689,18-11.426   c3.218,6.737,10.036,11.426,18,11.426c4.524,0,8.649-1.558,12-4.091c3.351,2.532,7.476,4.091,12,4.091c11.046,0,20-8.954,20-20   S220.912,60,209.867,60z" style="fill-rule:evenodd;clip-rule:evenodd;fill:#777777;stroke:#000000;stroke-width:8;stroke-linecap:round;stroke-linejoin:round;stroke-miterlimit:10;"/>
<path d="   M155.348,238.417c3.076,3.288,17.809,1.289,23.192-4.464c5.383-5.753,3.315-13.082,0.239-16.37   c-3.076-3.288-13.871-1.289-19.254,4.464C154.142,227.801,152.272,235.13,155.348,238.417z" style="fill-rule:evenodd;clip-rule:evenodd;fill:#777777;stroke:#000000;stroke-width:8;stroke-linecap:round;stroke-linejoin:round;stroke-miterlimit:10;"/>
<path d="   M152.386,238.417c-3.076,3.288-17.809,1.289-23.192-4.464c-5.383-5.753-3.315-13.082-0.239-16.37   c3.076-3.288,13.871-1.289,19.254,4.464C153.591,227.801,155.462,235.13,152.386,238.417z" style="fill-rule:evenodd;clip-rule:evenodd;fill:#777777;stroke:#000000;stroke-width:8;stroke-linecap:round;stroke-linejoin:round;stroke-miterlimit:10;"/>
<circle cx="117.867" cy="148" r="16" style="fill-rule:evenodd;clip-rule:evenodd;fill:#FFFFFF;stroke:#000000;stroke-width:8;stroke-linecap:round;stroke-linejoin:round;stroke-miterlimit:10;"/>
<circle cx="117.867" cy="148" r="8" style="fill-rule:evenodd;clip-rule:evenodd;"/>
<circle cx="185.867" cy="148" r="16" style="fill-rule:evenodd;clip-rule:evenodd;fill:#FFFFFF;stroke:#000000;stroke-width:8;stroke-linecap:round;stroke-linejoin:round;stroke-miterlimit:10;"/>
<circle cx="185.867" cy="148" r="8" style="fill-rule:evenodd;clip-rule:evenodd;"/>
</g>
<g/>
<g/>
<g/>
<g/>
<g/>
<g/>
<g/>
<g/>
<g/>
<g/>
<g/>
<g/>
<g/>
<g/>
<g/>
</svg>