<?xml version="1.0" ?>
<!-- Uploaded to: SVG Repo, www.svgrepo.com, Generator: SVG Repo Mixer Tools -->
<svg width="800px" height="800px" viewBox="0 0 300 300" id="snake" version="1.1" xml:space="preserve" xmlns="http://www.w3.org/2000/svg" xmlns:xlink="http://www.w3.org/1999/xlink">
<g>
<path d="   M40,228c0-9.94,8.048-18,17.986-18h192.028c9.934,0,17.986,8.08,17.986,18c0,9.94-8.048,18-17.986,18H57.986   C48.052,246,40,237.92,40,228z" style="fill-rule:evenodd;clip-rule:evenodd;fill:#2A8EE6;stroke:#000000;stroke-width:8;stroke-linecap:round;stroke-linejoin:round;stroke-miterlimit:10;"/>
<path d="   M72,192c0-9.94,8.021-18,18.02-18h127.96c9.952,0,18.02,8.08,18.02,18c0,9.94-8.021,18-18.02,18H90.02C80.068,210,72,201.92,72,192   z" style="fill-rule:evenodd;clip-rule:evenodd;fill:#26BBEC;stroke:#000000;stroke-width:8;stroke-linecap:round;stroke-linejoin:round;stroke-miterlimit:10;"/>
<rect height="76" style="fill-rule:evenodd;clip-rule:evenodd;fill:#2A8EE6;stroke:#000000;stroke-width:8;stroke-linecap:round;stroke-linejoin:round;stroke-miterlimit:10;" width="32" x="140" y="98"/>
<polyline points="   196,90 227.654,90 236,82  " style="fill:none;stroke:#000000;stroke-width:8;stroke-linecap:round;stroke-linejoin:round;stroke-miterlimit:10;"/>
<path d="   M140,80c0-9.94,8.041-18,17.998-18h28.004C195.942,62,204,70.08,204,80v18h-64V80z" style="fill-rule:evenodd;clip-rule:evenodd;fill:#26BBEC;stroke:#000000;stroke-width:8;stroke-linecap:round;stroke-linejoin:round;stroke-miterlimit:10;"/>
<circle cx="186" cy="76" r="6" style="fill-rule:evenodd;clip-rule:evenodd;"/>
</g>
<g/>
<g/>
<g/>
<g/>
<g/>
<g/>
<g/>
<g/>
<g/>
<g/>
<g/>
<g/>
<g/>
<g/>
<g/>
</svg>