<?xml version="1.0" ?>
<!-- Uploaded to: SVG Repo, www.svgrepo.com, Generator: SVG Repo Mixer Tools -->
<svg width="800px" height="800px" viewBox="0 0 300 300" id="butterfly" version="1.1" xml:space="preserve" xmlns="http://www.w3.org/2000/svg" xmlns:xlink="http://www.w3.org/1999/xlink">
<g>
<path d="   M158,130c0,0,20.201-65.118,40-80" style="fill:#26BBEC;stroke:#000000;stroke-width:8;stroke-linecap:round;stroke-linejoin:round;stroke-miterlimit:10;"/>
<path d="   M150,130c0,0-20.201-65.118-40-80" style="fill:#26BBEC;stroke:#000000;stroke-width:8;stroke-linecap:round;stroke-linejoin:round;stroke-miterlimit:10;"/>
<circle cx="200" cy="48" r="6" style="fill-rule:evenodd;clip-rule:evenodd;fill:#26BBEC;stroke:#000000;stroke-width:8;stroke-linecap:round;stroke-linejoin:round;stroke-miterlimit:10;"/>
<circle cx="108" cy="48" r="6" style="fill-rule:evenodd;clip-rule:evenodd;fill:#26BBEC;stroke:#000000;stroke-width:8;stroke-linecap:round;stroke-linejoin:round;stroke-miterlimit:10;"/>
<path d="   M154,153.792c0,0,48.252-61.042,76.289-59.772c28.037,1.27,20.121,86.257,12.716,95.272c-7.405,9.015-37.96,19.153-37.96,19.153   s23.319,9.221,23.319,29.122c0,19.9-20.727,42.361-45.586,17.396c-24.859-24.965-26.545-49.667-26.545-49.667" style="fill-rule:evenodd;clip-rule:evenodd;fill:#85D839;stroke:#000000;stroke-width:8;stroke-linecap:round;stroke-linejoin:round;stroke-miterlimit:10;"/>
<path d="   M154,153.792c0,0-48.251-61.042-76.288-59.772c-28.037,1.27-20.122,86.257-12.716,95.272c7.405,9.015,37.96,19.153,37.96,19.153   s-23.319,9.221-23.319,29.122c0,19.9,20.727,42.361,45.586,17.396c24.859-24.965,26.546-49.667,26.546-49.667" style="fill-rule:evenodd;clip-rule:evenodd;fill:#26BBEC;stroke:#000000;stroke-width:8;stroke-linecap:round;stroke-linejoin:round;stroke-miterlimit:10;"/>
<circle cx="154" cy="134" r="8" style="fill-rule:evenodd;clip-rule:evenodd;fill:#26BBEC;stroke:#000000;stroke-width:8;stroke-linecap:round;stroke-linejoin:round;stroke-miterlimit:10;"/>
<ellipse cx="154" cy="182" rx="8" ry="44" style="fill-rule:evenodd;clip-rule:evenodd;fill:#FBAD4A;stroke:#000000;stroke-width:8;stroke-linecap:round;stroke-linejoin:round;stroke-miterlimit:10;"/>
</g>
<g/>
<g/>
<g/>
<g/>
<g/>
<g/>
<g/>
<g/>
<g/>
<g/>
<g/>
<g/>
<g/>
<g/>
<g/>
</svg>