<?xml version="1.0" ?>
<!-- Uploaded to: SVG Repo, www.svgrepo.com, Generator: SVG Repo Mixer Tools -->
<svg width="800px" height="800px" viewBox="0 0 300 300" id="crocodile" version="1.1" xml:space="preserve" xmlns="http://www.w3.org/2000/svg" xmlns:xlink="http://www.w3.org/1999/xlink">
<g>
<path d="   M278,122c0-6.628-5.372-12-12-12c-5.512,0-10.106,3.737-11.514,8.8H225.98L164.572,94H45.964C37.14,94,30,101.216,30,110.118   v100.836c0,8.869,7.152,16.539,15.98,17.06c0,0,68.556,5.043,123.852-0.942c55.292-5.985,100.924-29.57,100.924-29.57   c4-1.874,7.244-7.068,7.244-11.515v-59.136c0-0.751-0.137-1.465-0.33-2.156C277.87,123.826,278,122.931,278,122z" style="fill-rule:evenodd;clip-rule:evenodd;fill:#595959;stroke:#000000;stroke-width:8;stroke-linecap:round;stroke-linejoin:round;stroke-miterlimit:10;"/>
<path d="   M86,96c6.387-10.76,18.327-18,32-18c13.672,0,25.613,7.24,32,18c-6.387,10.76-18.328,18-32,18C104.327,114,92.387,106.761,86,96z" style="fill-rule:evenodd;clip-rule:evenodd;fill:#26BBEC;stroke:#000000;stroke-width:8;stroke-linecap:round;stroke-linejoin:round;stroke-miterlimit:10;"/>
<path d="   M86,96c6.387-10.76,18.326-18,32-18s25.613,7.24,32,18c-6.388,10.76-18.326,18-32,18S92.387,106.761,86,96z" style="fill:#ED5481;stroke:#000000;stroke-width:8;stroke-linecap:round;stroke-linejoin:round;stroke-miterlimit:10;"/>
<polyline points="   274,152.383 249.621,152.383 225.873,174 219.106,138 205.278,164.167 188.403,150.579 159.803,160.272 141.703,150.951    128.114,161.623 95.77,162.032 82.645,148.116 62,148.116  " style="fill:none;stroke:#000000;stroke-width:8;stroke-linecap:round;stroke-linejoin:round;stroke-miterlimit:10;"/>
<circle cx="132" cy="96" r="6" style="fill-rule:evenodd;clip-rule:evenodd;"/>
</g>
<g/>
<g/>
<g/>
<g/>
<g/>
<g/>
<g/>
<g/>
<g/>
<g/>
<g/>
<g/>
<g/>
<g/>
<g/>
</svg>