<?xml version="1.0" ?>
<!-- Uploaded to: SVG Repo, www.svgrepo.com, Generator: SVG Repo Mixer Tools -->
<svg width="800px" height="800px" viewBox="0 0 300 300" id="hedgehog" version="1.1" xml:space="preserve" xmlns="http://www.w3.org/2000/svg" xmlns:xlink="http://www.w3.org/1999/xlink">
<g>
<polygon points="   184,225.223 162.786,240 150.977,217.21 125.217,220.589 125.519,195.007 120,172 117.558,130.462 111.046,105.694    136.878,102.906 142.804,77.996 166.994,87.345 184,68 201.006,87.345 225.196,77.996 231.122,102.906 256.954,105.694    250.442,130.462 272,144.749 254.542,163.7 266.886,186.214 242.481,195.007 242.783,220.589 217.023,217.21 205.214,240  " style="fill-rule:evenodd;clip-rule:evenodd;fill:#595959;stroke:#000000;stroke-width:8;stroke-linecap:round;stroke-linejoin:round;stroke-miterlimit:10;"/>
<path d="   M144,152c0-8.836-7.164-16-16-16c-7.592,0-13.917,5.302-15.557,12.395c-1.582-0.235-3.189-0.395-4.838-0.395   C89.714,148,44,180,44,180s45.714,32,63.605,32S140,197.673,140,180c0-5.215-1.29-10.124-3.53-14.474   C140.979,162.696,144,157.716,144,152z" style="fill-rule:evenodd;clip-rule:evenodd;fill:#26BBEC;stroke:#000000;stroke-width:8;stroke-linecap:round;stroke-linejoin:round;stroke-miterlimit:10;"/>
<circle cx="104" cy="164" r="8" style="fill-rule:evenodd;clip-rule:evenodd;"/>
<circle cx="44" cy="180" r="8" style="fill-rule:evenodd;clip-rule:evenodd;fill:#26BBEC;stroke:#000000;stroke-width:8;stroke-linecap:round;stroke-linejoin:round;stroke-miterlimit:10;"/>
</g>
<g/>
<g/>
<g/>
<g/>
<g/>
<g/>
<g/>
<g/>
<g/>
<g/>
<g/>
<g/>
<g/>
<g/>
<g/>
</svg>