<?xml version="1.0" ?>
<!-- Uploaded to: SVG Repo, www.svgrepo.com, Generator: SVG Repo Mixer Tools -->
<svg width="800px" height="800px" viewBox="0 0 300 300" id="shark" version="1.1" xml:space="preserve" xmlns="http://www.w3.org/2000/svg" xmlns:xlink="http://www.w3.org/1999/xlink">
<g>
<path d="   M80,188l-12.632,36.071c0,0,27.643-19.809,60.321-36.127c4.203-2.099,48.937,11.71,48.937,11.71s-26.125-22.095-21.128-23.961   c14.287-5.336,28.355-8.89,40.486-8.89c48.702,0,41.132,38.81,36.496,61.196c0,0,16.099-28.686,47.52-28.346   c0,0-27.662-8.07-42.657-36.37c-14.995-28.301-64.441-50.188-101.482-48.247L121.139,80l-21.452,38.168   c0,0-58.956,20.838-71.687,48.636L80,188z" style="fill-rule:evenodd;clip-rule:evenodd;fill:#26BBEC;stroke:#000000;stroke-width:8;stroke-linecap:round;stroke-linejoin:round;stroke-miterlimit:10;"/>
<circle cx="64" cy="160" r="8" style="fill-rule:evenodd;clip-rule:evenodd;fill:#26BBEC;stroke:#000000;stroke-width:8;stroke-linecap:round;stroke-linejoin:round;stroke-miterlimit:10;"/>
<line style="fill:none;stroke:#000000;stroke-width:8;stroke-linecap:round;stroke-linejoin:round;stroke-miterlimit:10;" x1="96" x2="116" y1="144" y2="168"/>
<line style="fill:none;stroke:#000000;stroke-width:8;stroke-linecap:round;stroke-linejoin:round;stroke-miterlimit:10;" x1="104" x2="128" y1="140" y2="168"/>
</g>
<g/>
<g/>
<g/>
<g/>
<g/>
<g/>
<g/>
<g/>
<g/>
<g/>
<g/>
<g/>
<g/>
<g/>
<g/>
</svg>